<svg width="49" height="47" viewBox="0 0 49 47" fill="none" xmlns="http://www.w3.org/2000/svg">
<path d="M48.4379 41.153L46.3674 33.4259L46.3673 33.4255L46.3672 33.425L40.1556 10.2434L38.0851 2.51578C37.8786 1.74763 37.3757 1.09283 36.6868 0.695145C35.9979 0.29746 35.1794 0.189399 34.4109 0.394691L26.6835 2.46525C26.3616 2.55208 26.0564 2.692 25.7805 2.87925C25.5567 2.32488 25.1725 1.84993 24.6772 1.51521C24.1818 1.18049 23.5978 1.00124 23 1.0004H15C14.261 1.00064 13.5483 1.27511 13 1.77065C12.4517 1.27511 11.739 1.00064 11 1.0004H3C2.20462 1.00129 1.44208 1.31765 0.879662 1.88006C0.317245 2.44248 0.000888668 3.20503 0 4.0004V44.0004C0.000888668 44.7958 0.317245 45.5583 0.879662 46.1207C1.44208 46.6832 2.20462 46.9995 3 47.0004H11C11.739 47.0002 12.4517 46.7257 13 46.2301C13.5483 46.7257 14.261 47.0002 15 47.0004H23C23.7954 46.9995 24.5579 46.6832 25.1203 46.1207C25.6828 45.5583 25.9991 44.7958 26 44.0004V11.5054L26.6326 13.8663L26.6327 13.8666L26.6328 13.8669L32.8444 37.0487V37.049L32.8445 37.0494L34.9149 44.7763C35.0166 45.157 35.1923 45.5139 35.4321 45.8267C35.6718 46.1394 35.9709 46.4018 36.3121 46.5988C36.6534 46.7958 37.0302 46.9236 37.4209 46.9749C37.8116 47.0262 38.2086 46.9999 38.5891 46.8976L46.3165 44.8271C46.6971 44.7251 47.0538 44.5492 47.3664 44.3094C47.6789 44.0696 47.9412 43.7706 48.1382 43.4294C48.3351 43.0882 48.463 42.7116 48.5144 42.321C48.5658 41.9304 48.5398 41.5335 48.4379 41.153ZM28.8232 14.3149L38.4827 11.7268L44.1766 32.9773L34.5175 35.5655L28.8232 14.3149ZM15 3.0004H23C23.2651 3.00069 23.5193 3.10613 23.7068 3.29361C23.8943 3.48108 23.9997 3.73527 24 4.0004V35.0004H14V4.0004C14.0003 3.73527 14.1057 3.48108 14.2932 3.29361C14.4807 3.10613 14.7349 3.00069 15 3.0004ZM3 3.0004H11C11.2651 3.00069 11.5193 3.10613 11.7068 3.29361C11.8943 3.48108 11.9997 3.73527 12 4.0004V11.0004H2V4.0004C2.00028 3.73527 2.10573 3.48108 2.29321 3.29361C2.48068 3.10613 2.73487 3.00069 3 3.0004ZM11 45.0004H3C2.73487 45.0001 2.48068 44.8947 2.29321 44.7072C2.10573 44.5197 2.00028 44.2655 2 44.0004V13.0004H12V44.0004C11.9997 44.2655 11.8943 44.5197 11.7068 44.7072C11.5193 44.8947 11.2651 45.0001 11 45.0004ZM23 45.0004H15C14.7349 45.0001 14.4807 44.8947 14.2932 44.7072C14.1057 44.5197 14.0003 44.2655 14 44.0004V37.0004H24V44.0004C23.9997 44.2655 23.8943 44.5197 23.7068 44.7072C23.5193 44.8947 23.2651 45.0001 23 45.0004ZM26.5939 4.86295C26.6593 4.74898 26.7466 4.64911 26.8509 4.56911C26.9551 4.48911 27.0742 4.43058 27.2012 4.39689L34.9285 2.32633C35.0553 2.29228 35.1876 2.28356 35.3178 2.30067C35.448 2.31778 35.5736 2.36038 35.6874 2.42604C35.8011 2.4917 35.9008 2.57914 35.9807 2.68335C36.0606 2.78755 36.1193 2.90649 36.1532 3.03336L37.9651 9.79508L28.3057 12.3832L26.494 5.62174C26.4596 5.49495 26.4508 5.36259 26.4679 5.23234C26.485 5.10209 26.5279 4.97654 26.5939 4.86295ZM46.4061 42.4294C46.3407 42.5433 46.2534 42.6432 46.1491 42.7232C46.0449 42.8032 45.9258 42.8617 45.7988 42.8954L38.0715 44.966C37.8154 45.034 37.5427 44.9977 37.3131 44.8652C37.0836 44.7327 36.9159 44.5146 36.8468 44.2587L35.035 37.4972L44.6942 34.9089L46.506 41.6706C46.5404 41.7974 46.5492 41.9297 46.5321 42.06C46.515 42.1902 46.4721 42.3158 46.4061 42.4294Z" fill="black"/>
</svg>
