<svg width="20" height="20" viewBox="0 0 20 20" fill="none" xmlns="http://www.w3.org/2000/svg">
<path d="M18.626 0.628906H1.37598C0.961133 0.628906 0.625977 0.964062 0.625977 1.37891V18.6289C0.625977 19.0438 0.961133 19.3789 1.37598 19.3789H18.626C19.0408 19.3789 19.376 19.0438 19.376 18.6289V1.37891C19.376 0.964062 19.0408 0.628906 18.626 0.628906ZM16.4604 6.10156H14.9627C13.7885 6.10156 13.5611 6.65937 13.5611 7.47969V9.28672H16.3643L15.9986 12.1156H13.5611V19.3789H10.6385V12.118H8.19394V9.28672H10.6385V7.20078C10.6385 4.77969 12.1174 3.46016 14.2783 3.46016C15.3143 3.46016 16.2025 3.5375 16.4627 3.57266V6.10156H16.4604Z" fill="#22142E" fill-opacity="0.62"/>
</svg>
