<svg width="22" height="22" viewBox="0 0 22 22" xmlns="http://www.w3.org/2000/svg">
<path d="M11.0003 5.50627C7.96009 5.50627 5.50652 7.95984 5.50652 11C5.50652 14.0402 7.96009 16.4938 11.0003 16.4938C14.0404 16.4938 16.494 14.0402 16.494 11C16.494 7.95984 14.0404 5.50627 11.0003 5.50627ZM11.0003 14.5706C9.0342 14.5706 7.42973 12.9661 7.42973 11C7.42973 9.03394 9.0342 7.42948 11.0003 7.42948C12.9663 7.42948 14.5708 9.03394 14.5708 11C14.5708 12.9661 12.9663 14.5706 11.0003 14.5706ZM16.719 4.00091C16.0092 4.00091 15.436 4.57412 15.436 5.28394C15.436 5.99377 16.0092 6.56698 16.719 6.56698C17.4288 6.56698 18.0021 5.99644 18.0021 5.28394C18.0023 5.11539 17.9692 4.94846 17.9048 4.7927C17.8404 4.63694 17.7459 4.49541 17.6267 4.37623C17.5076 4.25705 17.366 4.16255 17.2103 4.09814C17.0545 4.03374 16.8876 4.0007 16.719 4.00091ZM21.7092 11C21.7092 9.52144 21.7226 8.05627 21.6396 6.58037C21.5565 4.86609 21.1654 3.34466 19.9119 2.09109C18.6556 0.834837 17.1369 0.446444 15.4226 0.363408C13.944 0.280373 12.4788 0.293765 11.0029 0.293765C9.52437 0.293765 8.0592 0.280373 6.5833 0.363408C4.86902 0.446444 3.34759 0.837515 2.09402 2.09109C0.837767 3.34734 0.449374 4.86609 0.366338 6.58037C0.283302 8.05894 0.296695 9.52412 0.296695 11C0.296695 12.4759 0.283302 13.9438 0.366338 15.4197C0.449374 17.1339 0.840445 18.6554 2.09402 19.9089C3.35027 21.1652 4.86902 21.5536 6.5833 21.6366C8.06187 21.7197 9.52705 21.7063 11.0029 21.7063C12.4815 21.7063 13.9467 21.7197 15.4226 21.6366C17.1369 21.5536 18.6583 21.1625 19.9119 19.9089C21.1681 18.6527 21.5565 17.1339 21.6396 15.4197C21.7253 13.9438 21.7092 12.4786 21.7092 11ZM19.3521 17.3161C19.1565 17.8036 18.9208 18.1679 18.5431 18.5429C18.1654 18.9206 17.8038 19.1563 17.3163 19.3518C15.9074 19.9116 12.5619 19.7857 11.0003 19.7857C9.43866 19.7857 6.09045 19.9116 4.68152 19.3545C4.19402 19.1589 3.82973 18.9232 3.45473 18.5456C3.07705 18.1679 2.84134 17.8063 2.6458 17.3188C2.08866 15.9072 2.21455 12.5616 2.21455 11C2.21455 9.43841 2.08866 6.09019 2.6458 4.68127C2.84134 4.19377 3.07705 3.82948 3.45473 3.45448C3.83241 3.07948 4.19402 2.84109 4.68152 2.64555C6.09045 2.08841 9.43866 2.2143 11.0003 2.2143C12.5619 2.2143 15.9101 2.08841 17.319 2.64555C17.8065 2.84109 18.1708 3.0768 18.5458 3.45448C18.9235 3.83216 19.1592 4.19377 19.3547 4.68127C19.9119 6.09019 19.786 9.43841 19.786 11C19.786 12.5616 19.9119 15.9072 19.3521 17.3161Z" fill="#22142E" fill-opacity="0.62"/>
</svg>
