<svg width="64" height="64" viewBox="0 0 64 64" fill="none" xmlns="http://www.w3.org/2000/svg">
<path d="M46.626 52.2048L34.034 45.2288C38.714 41.5468 39.986 34.3108 39.986 30.2528V21.8068C39.986 16.2148 32.556 9.9868 25.092 9.9868C17.632 9.9868 10.004 16.2148 10.004 21.8068V30.2528C10.004 33.9428 11.564 41.4048 16.292 45.1968L3.376 52.2028C3.376 52.2028 0 53.7068 0 55.5808V60.6488C0 62.5148 1.514 64.0268 3.376 64.0268H46.626C48.488 64.0268 50.002 62.5128 50.002 60.6488V55.5808C50.002 53.5928 46.624 52.2028 46.624 52.2028L46.626 52.2048ZM46.002 60.0308H4V56.4548C4.286 56.2448 4.688 56.0028 5.004 55.8588C5.098 55.8168 5.192 55.7708 5.282 55.7188L18.2 48.7128C19.378 48.0728 20.158 46.8888 20.278 45.5548C20.398 44.2208 19.84 42.9148 18.796 42.0768C15.442 39.3868 14.004 33.4328 14.004 30.2548V21.8088C14.004 18.9348 19.42 13.9888 25.092 13.9888C30.87 13.9888 35.986 18.8688 35.986 21.8088V30.2548C35.986 33.3868 35.014 39.3688 31.562 42.0848C30.506 42.9168 29.936 44.2248 30.048 45.5628C30.16 46.9008 30.94 48.0968 32.118 48.7408L44.71 55.7168C44.82 55.7768 44.962 55.8428 45.078 55.8948C45.374 56.0208 45.736 56.2288 46.002 56.4128V60.0308ZM60.624 42.2468L47.844 35.2708C52.524 31.5888 53.984 24.3528 53.984 20.2948V11.8488C53.984 6.2568 46.368 -0.0332031 38.904 -0.0332031C34.054 -0.0332031 29.096 2.6048 26.21 5.9808C27.856 6.0828 29.67 6.0848 31.238 6.5848C33.346 4.9428 36.01 3.9688 38.904 3.9688C44.682 3.9688 49.984 8.9088 49.984 11.8508V20.2968C49.984 23.4288 48.824 29.4108 45.374 32.1268C44.316 32.9588 43.748 34.2668 43.86 35.6048C43.972 36.9448 44.75 38.1388 45.93 38.7828L58.71 45.7588C58.82 45.8188 58.962 45.8848 59.078 45.9368C59.374 46.0628 59.736 46.2708 60.002 46.4548V50.0128H51.928C53.148 50.9328 53.516 52.2488 53.99 54.0128H60.628C62.49 54.0128 64.004 52.4988 64.004 50.6348V45.6288C64.002 43.6388 60.624 42.2468 60.624 42.2468Z" fill="black"/>
</svg>
