<svg width="56" height="60" viewBox="0 0 56 60" fill="none" xmlns="http://www.w3.org/2000/svg">
<path d="M6.66637 59.3327H49.333C50.0403 59.3327 50.7186 59.0517 51.2187 58.5516C51.7188 58.0515 51.9997 57.3733 51.9997 56.666V24.0047C52.2796 23.7515 52.5466 23.4845 52.7997 23.2047C53.8085 21.9203 54.5089 20.4214 54.8468 18.8235C55.1848 17.2257 55.1513 15.5716 54.749 13.9887L51.9197 2.68735C51.7757 2.1102 51.443 1.59774 50.9743 1.23148C50.5056 0.865219 49.9279 0.66618 49.333 0.666016H6.66637C6.07154 0.66618 5.49384 0.865219 5.02514 1.23148C4.55644 1.59774 4.22366 2.1102 4.07971 2.68735L1.25837 13.9833C0.854967 15.5656 0.820215 17.2194 1.15679 18.8172C1.49337 20.415 2.1923 21.9143 3.19971 23.1993C3.45284 23.4792 3.71984 23.7462 3.99971 23.9993V56.666C3.99971 57.3733 4.28066 58.0515 4.78075 58.5516C5.28085 59.0517 5.95913 59.3327 6.66637 59.3327ZM30.6664 53.9993H25.333V40.666H30.6664V53.9993ZM47.2504 5.99935L49.5704 15.2767C49.7698 16.0745 49.7847 16.9072 49.614 17.7117C49.4433 18.5161 49.0915 19.2711 48.5854 19.9192C48.0792 20.5673 47.4319 21.0914 46.6928 21.4519C45.9536 21.8123 45.1421 21.9996 44.3197 21.9993C42.9657 21.9907 41.6636 21.4778 40.6676 20.5606C39.6715 19.6435 39.0531 18.388 38.933 17.0393L38.0104 5.99935H47.2504ZM23.341 5.99935H32.6584L33.501 16.1327C33.5642 16.879 33.4716 17.6304 33.2293 18.3391C32.987 19.0479 32.6002 19.6986 32.0933 20.25C31.5864 20.8015 30.9706 21.2418 30.2848 21.5429C29.5989 21.844 28.8581 21.9994 28.109 21.9993H27.8904C27.1413 21.9994 26.4005 21.844 25.7146 21.5429C25.0288 21.2418 24.413 20.8015 23.9061 20.25C23.3992 19.6986 23.0124 19.0479 22.7701 18.3391C22.5278 17.6304 22.4352 16.879 22.4984 16.1327L23.341 5.99935ZM19.9837 23.866C20.9912 24.9579 22.2138 25.8296 23.5745 26.4262C24.9352 27.0228 26.4046 27.3314 27.8904 27.3327H28.109C29.5948 27.3314 31.0642 27.0228 32.4249 26.4262C33.7856 25.8296 35.0082 24.9579 36.0157 23.866C36.0984 23.7753 36.1544 23.6633 36.2344 23.5727C37.4834 25.0586 39.1182 26.1709 40.9588 26.7873C42.7994 27.4037 44.7744 27.5001 46.6664 27.066V53.9993H35.9997V37.9993C35.9997 37.2921 35.7188 36.6138 35.2187 36.1137C34.7186 35.6136 34.0403 35.3327 33.333 35.3327H22.6664C21.9591 35.3327 21.2809 35.6136 20.7808 36.1137C20.2807 36.6138 19.9997 37.2921 19.9997 37.9993V53.9993H9.33304V27.066C11.2252 27.4998 13.2004 27.4029 15.041 26.7861C16.8817 26.1693 18.5164 25.0564 19.765 23.57C19.845 23.6607 19.901 23.7727 19.9837 23.866ZM6.42904 15.2767L8.74904 5.99935H17.989L17.0664 17.0393C16.9463 18.388 16.3279 19.6435 15.3319 20.5606C14.3358 21.4778 13.0337 21.9907 11.6797 21.9993C10.8574 21.9996 10.0458 21.8123 9.30664 21.4519C8.5675 21.0914 7.92024 20.5673 7.41405 19.9192C6.90787 19.2711 6.55607 18.5161 6.38538 17.7117C6.2147 16.9072 6.22963 16.0745 6.42904 15.2767Z" fill="black"/>
</svg>
