<svg width="23" height="25" viewBox="0 0 23 25" fill="none" xmlns="http://www.w3.org/2000/svg">
<path d="M1 5.6H3.33333M3.33333 5.6H22M3.33333 5.6V21.7C3.33333 22.31 3.57917 22.895 4.01675 23.3263C4.45434 23.7577 5.04783 24 5.66667 24H17.3333C17.9522 24 18.5457 23.7577 18.9832 23.3263C19.4208 22.895 19.6667 22.31 19.6667 21.7V5.6M6.83333 5.6V3.3C6.83333 2.69 7.07917 2.10499 7.51675 1.67365C7.95434 1.24232 8.54783 1 9.16667 1H13.8333C14.4522 1 15.0457 1.24232 15.4832 1.67365C15.9208 2.10499 16.1667 2.69 16.1667 3.3V5.6M9.16667 11.35V18.25M13.8333 11.35V18.25" stroke="#211B28" stroke-width="2" stroke-linecap="round" stroke-linejoin="round"/>
</svg>
