<svg width="24" height="21" viewBox="0 0 24 21" fill="none" xmlns="http://www.w3.org/2000/svg">
<path d="M20.5686 2.99586C20.0579 2.48486 19.4514 2.07951 18.784 1.80294C18.1165 1.52638 17.4011 1.38403 16.6786 1.38403C15.9561 1.38403 15.2407 1.52638 14.5733 1.80294C13.9058 2.07951 13.2994 2.48486 12.7886 2.99586L11.7286 4.05586L10.6686 2.99586C9.63694 1.96417 8.23767 1.38457 6.77863 1.38457C5.3196 1.38457 3.92033 1.96417 2.88863 2.99586C1.85694 4.02755 1.27734 5.42683 1.27734 6.88586C1.27734 8.34489 1.85694 9.74417 2.88863 10.7759L11.7286 19.6159L20.5686 10.7759C21.0796 10.2651 21.485 9.65867 21.7615 8.99121C22.0381 8.32375 22.1805 7.60835 22.1805 6.88586C22.1805 6.16337 22.0381 5.44796 21.7615 4.7805C21.485 4.11304 21.0796 3.50661 20.5686 2.99586Z" stroke="black" stroke-width="2" stroke-linecap="round" stroke-linejoin="round"/>
</svg>
