<svg width="122" height="36" viewBox="0 0 122 36" fill="none" xmlns="http://www.w3.org/2000/svg">
<path d="M25.6241 11.5396L29.3511 3.9541L34.9297 16.4493V30.569L25.6241 11.5396ZM9.42578 23.8914L22.9483 14.1437L34.0936 33.8182L14.431 33.7943L9.42578 23.8914Z" fill="#1A1D23"/>
<path d="M23.5078 13.7495C23.5078 13.7495 24.1768 13.6062 24.7621 13.1642C25.3474 12.7222 25.3236 12.0652 25.3236 12.0652L34.9279 29.5775L34.9398 33.8182L33.8408 33.8063L23.5078 13.7495Z" fill="#1A1D23"/>
<path d="M20.2598 0L22.9715 10.1657L23.8555 5.79364L20.2598 0ZM25.3248 1.3857L23.6166 11.8023L27.26 4.69464L25.3248 1.3857ZM10.8347 6.65373L11.6351 10.9422L19.4595 10.6794L10.8347 6.65373ZM16.2939 2.04271L18.1693 9.2101L22.207 10.7989L21.5738 8.74422L16.2939 2.04271ZM3.98985 12.1965L5.24414 14.6454L19.3639 11.6828L3.98985 12.1965ZM0 16.4731L1.75601 18.6113L19.113 12.7221L0 16.4731ZM21.2991 12.6624L0.561446 20.1284L9.891 33.8181H10.8825L3.1656 21.3469L21.2633 13.1999L21.2991 12.6624Z" fill="#556E72"/>
<path d="M19.8879 14.9797L4.8125 21.6932L11.6812 33.83L12.7802 33.818L7.48833 23.2461L19.8879 14.9797Z" fill="#556E72"/>
<path d="M5.25781 5.96084C5.26976 5.27994 5.44894 4.61098 6.23736 4.53931H16.2478L16.7256 5.97278H6.9302V11.4678H5.25781V5.96084ZM19.3537 4.53931H20.7872L21.265 5.97278H20.5482L19.3537 4.53931ZM35.3967 4.53931C36.436 4.53931 36.3046 5.97278 36.3046 5.97278H36.3165C36.3165 5.97278 36.2807 34.1645 36.3165 34.1645C36.2448 34.8693 35.5639 35.2038 34.9428 35.3471V35.3591H6.67935C5.96261 35.4427 5.29365 35.2157 5.25781 34.4034V28.1917L6.69129 30.103V33.6867H34.883V5.97278H31.0604L30.3437 4.53931H35.3967Z" fill="#1A1D23"/>
<path d="M42.9109 35.3903C42.6535 35.3903 42.4546 35.3259 42.3142 35.1972C42.1854 35.0568 42.1211 34.8579 42.1211 34.6005V23.8066C42.1211 23.5492 42.1854 23.3562 42.3142 23.2275C42.4546 23.087 42.6535 23.0168 42.9109 23.0168H49.7031C49.902 23.0168 50.0541 23.0695 50.1594 23.1748C50.2764 23.2801 50.3349 23.4264 50.3349 23.6136C50.3349 23.8125 50.2764 23.9646 50.1594 24.0699C50.0541 24.1752 49.902 24.2279 49.7031 24.2279H43.5252V28.4752H47.2811C48.5798 28.4752 49.5861 28.7619 50.2998 29.3352C51.0136 29.9085 51.3704 30.7685 51.3704 31.9152C51.3704 33.0501 51.0136 33.916 50.2998 34.5127C49.5861 35.0977 48.5798 35.3903 47.2811 35.3903H42.9109ZM43.5252 34.1792H47.1407C48.0767 34.1792 48.7787 33.9979 49.2468 33.6352C49.7148 33.2607 49.9488 32.6874 49.9488 31.9152C49.9488 31.1546 49.7148 30.593 49.2468 30.2303C48.7787 29.8676 48.0767 29.6862 47.1407 29.6862H43.5252V34.1792Z" fill="#1A1D23"/>
<path d="M54.8483 35.3903C54.5909 35.3903 54.3919 35.3259 54.2515 35.1972C54.1228 35.0568 54.0585 34.8579 54.0585 34.6005V23.8066C54.0585 23.5492 54.1228 23.3562 54.2515 23.2275C54.3919 23.087 54.5909 23.0168 54.8483 23.0168H61.3772C61.5761 23.0168 61.7282 23.0695 61.8335 23.1748C61.9388 23.2801 61.9915 23.4264 61.9915 23.6136C61.9915 23.8125 61.9388 23.9646 61.8335 24.0699C61.7282 24.1752 61.5761 24.2279 61.3772 24.2279H55.4625V28.5103H61.0086C61.2076 28.5103 61.3597 28.5629 61.465 28.6682C61.5703 28.7619 61.6229 28.9081 61.6229 29.107C61.6229 29.3059 61.5703 29.458 61.465 29.5633C61.3597 29.6687 61.2076 29.7213 61.0086 29.7213H55.4625V34.1792H61.3772C61.5761 34.1792 61.7282 34.2319 61.8335 34.3372C61.9388 34.4425 61.9915 34.5888 61.9915 34.776C61.9915 34.9749 61.9388 35.127 61.8335 35.2323C61.7282 35.3376 61.5761 35.3903 61.3772 35.3903H54.8483Z" fill="#1A1D23"/>
<path d="M68.5908 35.5482C67.6664 35.5482 66.8181 35.4312 66.0459 35.1972C65.2854 34.9632 64.6477 34.6356 64.1328 34.2143C63.9924 34.109 63.8988 33.992 63.852 33.8633C63.8169 33.7346 63.8111 33.6059 63.8345 33.4772C63.8696 33.3485 63.9339 33.2432 64.0275 33.1613C64.1211 33.0794 64.2323 33.0326 64.361 33.0209C64.5014 33.0092 64.6477 33.056 64.7998 33.1613C65.1391 33.407 65.496 33.6118 65.8704 33.7756C66.2565 33.9394 66.666 34.0622 67.099 34.1441C67.5436 34.226 68.0116 34.267 68.503 34.267C69.2636 34.267 69.8837 34.1792 70.3634 34.0037C70.8549 33.8282 71.2176 33.5708 71.4516 33.2315C71.6856 32.8805 71.8026 32.4476 71.8026 31.9327C71.8026 31.1722 71.5686 30.6164 71.1006 30.2654C70.6442 29.9027 69.9422 29.7213 68.9945 29.7213H66.5022C66.3033 29.7213 66.1454 29.6687 66.0284 29.5633C65.9113 29.458 65.8528 29.3118 65.8528 29.1246C65.8528 28.9257 65.9113 28.7794 66.0284 28.6858C66.1454 28.5805 66.3033 28.5278 66.5022 28.5278H68.7136C69.638 28.5278 70.3342 28.3465 70.8022 27.9838C71.2702 27.621 71.5042 27.0887 71.5042 26.3866C71.5042 25.9186 71.3931 25.5149 71.1708 25.1756C70.9485 24.8363 70.615 24.5789 70.1704 24.4034C69.7374 24.2279 69.1875 24.1401 68.5206 24.1401C67.9005 24.1401 67.2979 24.222 66.7128 24.3858C66.1395 24.5496 65.6071 24.8129 65.1157 25.1756C64.9636 25.2692 64.8173 25.316 64.6769 25.316C64.5482 25.3043 64.4371 25.2575 64.3435 25.1756C64.2499 25.082 64.1855 24.9709 64.1504 24.8421C64.127 24.7134 64.1387 24.5847 64.1855 24.456C64.2323 24.3273 64.3259 24.2162 64.4663 24.1226C65.0279 23.6896 65.6715 23.3737 66.3969 23.1748C67.1341 22.9642 67.8771 22.8589 68.6259 22.8589C69.597 22.8589 70.3985 22.9993 71.0304 23.2801C71.6739 23.5609 72.1536 23.9529 72.4695 24.456C72.7972 24.9591 72.961 25.5559 72.961 26.2462C72.961 27.0185 72.7328 27.662 72.2765 28.1768C71.8319 28.6916 71.2234 29.031 70.4512 29.1948V28.9491C71.317 29.0544 72.0015 29.3703 72.5046 29.8968C73.0078 30.4233 73.2593 31.1195 73.2593 31.9854C73.2593 32.7225 73.0897 33.3602 72.7504 33.8984C72.411 34.425 71.8962 34.8345 71.2059 35.127C70.5272 35.4078 69.6555 35.5482 68.5908 35.5482Z" fill="#1A1D23"/>
<path d="M81.7972 35.5131C81.5866 35.5131 81.4228 35.4546 81.3058 35.3376C81.1888 35.2089 81.1302 35.0334 81.1302 34.8111V23.596C81.1302 23.362 81.1888 23.1865 81.3058 23.0695C81.4228 22.9525 81.5866 22.894 81.7972 22.894C81.9844 22.894 82.1306 22.9349 82.236 23.0168C82.353 23.087 82.4583 23.2099 82.5519 23.3854L87.3608 32.4417H86.8343L91.6257 23.3854C91.7193 23.2099 91.8188 23.087 91.9241 23.0168C92.0294 22.9349 92.1815 22.894 92.3804 22.894C92.5793 22.894 92.7373 22.9525 92.8543 23.0695C92.9713 23.1865 93.0298 23.362 93.0298 23.596V34.8111C93.0298 35.0334 92.9713 35.2089 92.8543 35.3376C92.749 35.4546 92.5852 35.5131 92.3628 35.5131C92.1522 35.5131 91.9884 35.4546 91.8714 35.3376C91.7544 35.2089 91.6959 35.0334 91.6959 34.8111V24.9474H92.1171L87.7294 33.1788C87.6475 33.3309 87.5597 33.4421 87.4661 33.5123C87.3842 33.5708 87.2614 33.6001 87.0976 33.6001C86.9338 33.6001 86.805 33.565 86.7114 33.4948C86.6178 33.4246 86.5359 33.3192 86.4657 33.1788L82.0253 24.9299H82.4466V34.8111C82.4466 35.0334 82.3881 35.2089 82.2711 35.3376C82.1658 35.4546 82.0078 35.5131 81.7972 35.5131Z" fill="#1A1D23"/>
<path d="M97.2502 35.3903C96.9928 35.3903 96.7939 35.3259 96.6535 35.1972C96.5248 35.0568 96.4604 34.8579 96.4604 34.6005V23.8066C96.4604 23.5492 96.5248 23.3562 96.6535 23.2275C96.7939 23.087 96.9928 23.0168 97.2502 23.0168H103.779C103.978 23.0168 104.13 23.0695 104.236 23.1748C104.341 23.2801 104.393 23.4264 104.393 23.6136C104.393 23.8125 104.341 23.9646 104.236 24.0699C104.13 24.1752 103.978 24.2279 103.779 24.2279H97.8645V28.5103H103.411C103.61 28.5103 103.762 28.5629 103.867 28.6682C103.972 28.7619 104.025 28.9081 104.025 29.107C104.025 29.3059 103.972 29.458 103.867 29.5633C103.762 29.6687 103.61 29.7213 103.411 29.7213H97.8645V34.1792H103.779C103.978 34.1792 104.13 34.2319 104.236 34.3372C104.341 34.4425 104.393 34.5888 104.393 34.776C104.393 34.9749 104.341 35.127 104.236 35.2323C104.13 35.3376 103.978 35.3903 103.779 35.3903H97.2502Z" fill="#1A1D23"/>
<path d="M114.029 35.5131C113.795 35.5131 113.614 35.4488 113.485 35.3201C113.368 35.1796 113.309 34.9924 113.309 34.7584V29.774H111.8C111.145 29.774 110.595 29.9319 110.15 30.2478C109.706 30.552 109.314 31.0552 108.974 31.7572L107.412 35.0392C107.33 35.2148 107.219 35.3376 107.079 35.4078C106.938 35.478 106.792 35.5014 106.64 35.478C106.5 35.4663 106.371 35.4195 106.254 35.3376C106.137 35.2557 106.061 35.1445 106.026 35.0041C105.991 34.852 106.02 34.6824 106.114 34.4952L107.781 31.0903C108.155 30.3414 108.6 29.7564 109.115 29.3352C109.63 28.914 110.238 28.6624 110.94 28.5805L110.414 29.0544L106.991 23.947C106.886 23.7832 106.839 23.6311 106.851 23.4907C106.862 23.3386 106.915 23.2158 107.009 23.1222C107.114 23.0168 107.231 22.9525 107.36 22.9291C107.5 22.894 107.641 22.9057 107.781 22.9642C107.933 23.011 108.062 23.1163 108.167 23.2801L111.818 28.8087L111.414 28.5278H113.309V23.6311C113.309 23.3854 113.368 23.2041 113.485 23.087C113.614 22.9583 113.795 22.894 114.029 22.894C114.251 22.894 114.421 22.9583 114.538 23.087C114.655 23.2041 114.714 23.3854 114.714 23.6311V28.5278H116.644L116.223 28.8087L119.874 23.2801C119.979 23.1163 120.102 23.011 120.242 22.9642C120.394 22.9057 120.535 22.894 120.663 22.9291C120.804 22.9525 120.921 23.0168 121.014 23.1222C121.12 23.2158 121.178 23.3386 121.19 23.4907C121.202 23.6311 121.155 23.7832 121.049 23.947L117.627 29.0544L117.1 28.5805C117.569 28.639 117.99 28.7736 118.364 28.9842C118.75 29.1831 119.095 29.458 119.4 29.8091C119.716 30.1601 119.991 30.5872 120.225 31.0903L121.892 34.4952C121.997 34.6824 122.026 34.852 121.98 35.0041C121.945 35.1445 121.868 35.2557 121.751 35.3376C121.634 35.4195 121.5 35.4663 121.348 35.478C121.207 35.5014 121.067 35.478 120.927 35.4078C120.786 35.3376 120.675 35.2148 120.593 35.0392L119.031 31.7572C118.692 31.0435 118.3 30.5345 117.855 30.2303C117.411 29.9261 116.872 29.774 116.24 29.774H114.714V34.7584C114.714 34.9924 114.655 35.1796 114.538 35.3201C114.421 35.4488 114.251 35.5131 114.029 35.5131Z" fill="#1A1D23"/>
<path d="M50.5925 16.4693C50.2476 16.4693 49.9806 16.3748 49.7915 16.1857C49.6135 15.9854 49.5245 15.7129 49.5245 15.368V11.7471C49.2242 11.8917 48.8348 12.0085 48.3565 12.0975C47.8893 12.1865 47.422 12.231 46.9548 12.231C45.9425 12.231 45.0804 12.0475 44.3684 11.6804C43.6565 11.3133 43.117 10.7682 42.7499 10.0451C42.3828 9.31089 42.1992 8.39314 42.1992 7.29184V5.53978C42.1992 5.1838 42.2882 4.91126 42.4662 4.72215C42.6553 4.53303 42.9223 4.43848 43.2671 4.43848C43.612 4.43848 43.8734 4.53303 44.0514 4.72215C44.2405 4.91126 44.3351 5.1838 44.3351 5.53978V7.19173C44.3351 8.30415 44.5742 9.11622 45.0526 9.62794C45.5309 10.1397 46.2429 10.3955 47.1884 10.3955C47.5889 10.3955 47.9894 10.3566 48.3899 10.2787C48.8015 10.1897 49.1797 10.0562 49.5245 9.87823V5.53978C49.5245 5.1838 49.6135 4.91126 49.7915 4.72215C49.9806 4.53303 50.2476 4.43848 50.5925 4.43848C50.9373 4.43848 51.1987 4.53303 51.3767 4.72215C51.5658 4.91126 51.6604 5.1838 51.6604 5.53978V15.368C51.6604 15.7129 51.5714 15.9854 51.3934 16.1857C51.2154 16.3748 50.9484 16.4693 50.5925 16.4693Z" fill="#556E72"/>
<path d="M54.9024 16.4693C54.7577 16.4693 54.6298 16.4471 54.5186 16.4026C54.4073 16.3581 54.3128 16.2914 54.2349 16.2024C54.157 16.1022 54.0959 15.9854 54.0514 15.8519C54.018 15.7185 54.0013 15.5627 54.0013 15.3847V5.45635C54.0013 5.13374 54.0847 4.88345 54.2516 4.70546C54.4296 4.52747 54.6799 4.43848 55.0025 4.43848C55.3251 4.43848 55.5698 4.52747 55.7367 4.70546C55.9035 4.88345 55.987 5.13374 55.987 5.45635V13.349H55.6032L61.944 5.05587C62.1109 4.83339 62.2722 4.67765 62.4279 4.58865C62.5837 4.48854 62.7894 4.43848 63.0453 4.43848C63.2233 4.43848 63.3735 4.47741 63.4958 4.55528C63.6293 4.63315 63.7294 4.74996 63.7962 4.90569C63.8741 5.05031 63.913 5.22274 63.913 5.42297V15.4348C63.913 15.7685 63.8296 16.0244 63.6627 16.2024C63.4958 16.3804 63.2511 16.4693 62.9285 16.4693C62.6059 16.4693 62.3556 16.3804 62.1776 16.2024C62.0108 16.0244 61.9273 15.7685 61.9273 15.4348V7.54214H62.2944L55.9703 15.8353C55.7923 16.0577 55.631 16.219 55.4864 16.3192C55.3529 16.4193 55.1582 16.4693 54.9024 16.4693Z" fill="#556E72"/>
<path d="M70.1712 16.4693C69.8263 16.4693 69.5593 16.3748 69.3702 16.1857C69.1922 15.9854 69.1032 15.7129 69.1032 15.368V6.35741H65.8494C65.5602 6.35741 65.3321 6.27954 65.1653 6.1238C65.0095 5.95694 64.9316 5.73445 64.9316 5.45635C64.9316 5.16711 65.0095 4.95019 65.1653 4.80558C65.3321 4.64984 65.5602 4.57197 65.8494 4.57197H74.4929C74.7822 4.57197 75.0046 4.64984 75.1604 4.80558C75.3272 4.95019 75.4107 5.16711 75.4107 5.45635C75.4107 5.73445 75.3272 5.95694 75.1604 6.1238C75.0046 6.27954 74.7822 6.35741 74.4929 6.35741H71.2391V15.368C71.2391 15.7129 71.1501 15.9854 70.9721 16.1857C70.7941 16.3748 70.5271 16.4693 70.1712 16.4693Z" fill="#556E72"/>
<path d="M75.1125 16.4693C74.8456 16.4693 74.6286 16.4082 74.4618 16.2858C74.306 16.1634 74.2115 16.0021 74.1781 15.8019C74.1447 15.5905 74.1837 15.3569 74.2949 15.1011L78.7001 5.33954C78.8447 5.01694 79.0172 4.78889 79.2174 4.6554C79.4288 4.51078 79.6679 4.43848 79.9349 4.43848C80.1908 4.43848 80.4188 4.51078 80.619 4.6554C80.8304 4.78889 81.0084 5.01694 81.153 5.33954L85.5749 15.1011C85.6973 15.3569 85.7418 15.5905 85.7084 15.8019C85.675 16.0133 85.5805 16.1801 85.4247 16.3025C85.269 16.4137 85.0632 16.4693 84.8073 16.4693C84.4958 16.4693 84.2511 16.397 84.0731 16.2524C83.9063 16.0967 83.7561 15.8631 83.6226 15.5516L82.538 13.032L83.439 13.616H76.3974L77.2985 13.032L76.2305 15.5516C76.0859 15.8742 75.9357 16.1078 75.78 16.2524C75.6243 16.397 75.4018 16.4693 75.1125 16.4693ZM79.9015 6.89137L77.5654 12.4479L77.1316 11.914H82.7048L82.2877 12.4479L79.9349 6.89137H79.9015Z" fill="#556E72"/>
<path d="M88.2637 16.4693C87.9189 16.4693 87.6519 16.3748 87.4628 16.1857C87.2848 15.9854 87.1958 15.7129 87.1958 15.368V5.53978C87.1958 5.1838 87.2848 4.91126 87.4628 4.72215C87.6519 4.53303 87.9189 4.43848 88.2637 4.43848C88.6086 4.43848 88.87 4.53303 89.048 4.72215C89.2371 4.91126 89.3317 5.1838 89.3317 5.53978V9.47776H95.3888V5.53978C95.3888 5.1838 95.4778 4.91126 95.6558 4.72215C95.8449 4.53303 96.1119 4.43848 96.4567 4.43848C96.8016 4.43848 97.063 4.53303 97.241 4.72215C97.4301 4.91126 97.5247 5.1838 97.5247 5.53978V15.368C97.5247 15.7129 97.4301 15.9854 97.241 16.1857C97.063 16.3748 96.8016 16.4693 96.4567 16.4693C96.1119 16.4693 95.8449 16.3748 95.6558 16.1857C95.4778 15.9854 95.3888 15.7129 95.3888 15.368V11.2632H89.3317V15.368C89.3317 15.7129 89.2427 15.9854 89.0647 16.1857C88.8867 16.3748 88.6197 16.4693 88.2637 16.4693Z" fill="#556E72"/>
<path d="M100.953 16.4693C100.608 16.4693 100.341 16.3748 100.152 16.1857C99.9737 15.9854 99.8847 15.7129 99.8847 15.368V5.53978C99.8847 5.1838 99.9737 4.91126 100.152 4.72215C100.341 4.53303 100.608 4.43848 100.953 4.43848C101.298 4.43848 101.559 4.53303 101.737 4.72215C101.926 4.91126 102.021 5.1838 102.021 5.53978V9.47776H108.078V5.53978C108.078 5.1838 108.167 4.91126 108.345 4.72215C108.534 4.53303 108.801 4.43848 109.146 4.43848C109.491 4.43848 109.752 4.53303 109.93 4.72215C110.119 4.91126 110.214 5.1838 110.214 5.53978V15.368C110.214 15.7129 110.119 15.9854 109.93 16.1857C109.752 16.3748 109.491 16.4693 109.146 16.4693C108.801 16.4693 108.534 16.3748 108.345 16.1857C108.167 15.9854 108.078 15.7129 108.078 15.368V11.2632H102.021V15.368C102.021 15.7129 101.932 15.9854 101.754 16.1857C101.576 16.3748 101.309 16.4693 100.953 16.4693Z" fill="#556E72"/>
<path d="M120.433 16.4693C120.088 16.4693 119.821 16.3748 119.632 16.1857C119.454 15.9854 119.365 15.7129 119.365 15.368V11.6303H117.93C117.663 11.6303 117.424 11.6581 117.212 11.7137C117.001 11.7694 116.812 11.8639 116.645 11.9974C116.478 12.1309 116.328 12.3256 116.195 12.5814L114.426 15.8186C114.281 16.0856 114.103 16.2635 113.892 16.3525C113.681 16.4527 113.469 16.4805 113.258 16.436C113.046 16.4026 112.863 16.3136 112.707 16.169C112.551 16.0244 112.451 15.8408 112.407 15.6183C112.373 15.3959 112.429 15.1511 112.574 14.8841L113.758 12.7149C114.003 12.2588 114.298 11.914 114.643 11.6804C114.988 11.4467 115.388 11.3299 115.844 11.3299H116.412L116.378 11.5802C115.099 11.5802 114.103 11.2743 113.391 10.6625C112.69 10.0395 112.34 9.18297 112.34 8.09279C112.34 7.34747 112.496 6.71338 112.807 6.19054C113.119 5.66771 113.575 5.26723 114.176 4.98913C114.787 4.71102 115.522 4.57197 116.378 4.57197H120.366C120.733 4.57197 121.011 4.67209 121.201 4.87232C121.401 5.06143 121.501 5.33954 121.501 5.70664V15.368C121.501 15.7129 121.406 15.9854 121.217 16.1857C121.039 16.3748 120.778 16.4693 120.433 16.4693ZM116.745 10.0451H119.365V6.25729H116.745C115.978 6.25729 115.394 6.41859 114.993 6.74119C114.604 7.05267 114.409 7.51989 114.409 8.14285C114.409 8.77693 114.604 9.25527 114.993 9.57788C115.394 9.88936 115.978 10.0451 116.745 10.0451Z" fill="#556E72"/>
</svg>
